#N canvas 170 148 450 300 10;
#X obj 79 59 inlet;
#X obj 79 202 outlet;
#X obj 79 125 + 1;
#X msg 79 145 hello \$1;
#X obj 79 105 route hello;
#X connect 0 0 4 0;
#X connect 2 0 3 0;
#X connect 3 0 1 0;
#X connect 4 0 2 0;
