#N canvas 0 23 306 299 10;
#X msg 149 160 connect localhost \$1;
#X obj 37 25 loadbang;
#X obj 37 138 list prepend send;
#X obj 37 158 list trim;
#X obj 37 45 t b b;
#X msg 37 69 initialized;
#X obj 37 201 netsend;
#X obj 118 69 r __from_pd__;
#X obj 149 138 f \$1;
#X connect 0 0 6 0;
#X connect 1 0 4 0;
#X connect 2 0 3 0;
#X connect 3 0 6 0;
#X connect 4 0 5 0;
#X connect 4 1 8 0;
#X connect 5 0 2 0;
#X connect 7 0 2 0;
#X connect 8 0 0 0;
