#N canvas 0 23 345 224 10;
#X obj 40 52 route open close send;
#X msg 40 138 \; pd open \$1 \$2;
#X msg 134 138 \; \$1 menuclose;
#X obj 40 75 unpack s s;
#X obj 40 114 pack s s;
#X obj 190 86 s __to_pd__;
#X obj 134 96 symbol;
#X obj 134 117 makefilename pd-%s;
#X obj 40 29 netreceive \$1;
#X connect 0 0 3 0;
#X connect 0 1 6 0;
#X connect 0 2 5 0;
#X connect 3 0 4 0;
#X connect 3 1 4 1;
#X connect 4 0 1 0;
#X connect 6 0 7 0;
#X connect 7 0 2 0;
#X connect 8 0 0 0;
