#N canvas 0 23 343 486 10;
#X obj 126 206 list tosymbol;
#X obj 126 186 list store;
#X msg 159 151 append \$1;
#X obj 100 142 t b b;
#X obj 67 275 list store;
#X msg 126 226 append \$1;
#X obj 40 196 t b b;
#X obj 40 113 t b b;
#X obj 40 82 sel 10 32;
#X obj 67 296 list trim;
#X obj 67 319 route open close send;
#X msg 67 405 \; pd open \$1 \$2;
#X msg 161 405 \; \$1 menuclose;
#X obj 67 342 unpack s s;
#X obj 67 381 pack s s;
#X obj 217 353 s __to_pd__;
#X obj 40 29 netreceive -b \$1;
#X obj 161 363 symbol;
#X obj 161 384 makefilename pd-%s;
#X connect 0 0 5 0;
#X connect 1 0 0 0;
#X connect 2 0 1 0;
#X connect 3 0 1 1;
#X connect 3 1 1 0;
#X connect 4 0 9 0;
#X connect 5 0 4 0;
#X connect 6 0 4 1;
#X connect 6 1 4 0;
#X connect 7 0 6 0;
#X connect 7 1 3 0;
#X connect 8 0 7 0;
#X connect 8 1 3 0;
#X connect 8 2 2 0;
#X connect 9 0 10 0;
#X connect 10 0 13 0;
#X connect 10 1 17 0;
#X connect 10 2 15 0;
#X connect 13 0 14 0;
#X connect 13 1 14 1;
#X connect 14 0 11 0;
#X connect 16 0 8 0;
#X connect 17 0 18 0;
#X connect 18 0 12 0;
