#N canvas 0 23 411 292 10;
#X obj 40 107 route open close send;
#X msg 40 193 \; pd open \$1 \$2;
#X msg 134 193 \; \$1 menuclose;
#X obj 40 130 unpack s s;
#X obj 40 169 pack s s;
#X obj 190 141 s __to_pd__;
#X obj 134 151 symbol;
#X obj 134 172 makefilename pd-%s;
#X obj 40 29 netreceive \$1;
#X obj 190 28 netreceive -b -u \$2;
#X obj 190 48 oscparse;
#X obj 190 68 list trim;
#X obj 190 88 route all;
#X connect 0 0 3 0;
#X connect 0 1 6 0;
#X connect 0 2 5 0;
#X connect 3 0 4 0;
#X connect 3 1 4 1;
#X connect 4 0 1 0;
#X connect 6 0 7 0;
#X connect 7 0 2 0;
#X connect 8 0 0 0;
#X connect 9 0 10 0;
#X connect 10 0 11 0;
#X connect 11 0 12 0;
#X connect 12 0 5 0;
